<svg viewBox="0 0 357 475" xmlns="http://www.w3.org/2000/svg" fill="#fff">
  <path d="M319 188h-1c-9 0-18 3-24 9-6-15-20-26-36-26-10 0-20 4-27 11-6-13-19-21-34-21-8-1-16 2-22 7V76c0-23-18-41-39-41S98 53 98 76v182l-10-12c-10-11-23-18-37-19-15-1-28 3-39 13l-9 8c-3 2-4 6-2 9l88 169c16 30 46 50 79 50h99v-1c50 0 90-43 90-96V228c0-23-17-40-38-40zm22 135v56c0 44-34 81-75 81h-98c-27 0-52-16-65-42L18 256l5-4a36 36 0 0152 4l25 30a8 8 0 0014-5V76c0-14 10-25 22-25s23 11 23 25v178a8 8 0 0016 0v-54c0-13 10-23 22-23 13 0 23 10 23 24v48a8 8 0 0016 0v-38c0-13 9-24 22-24 12 0 22 11 22 24v36a8 8 0 0016 0v-19c0-14 10-24 22-24h1c12 0 22 10 22 24v95zm0 0"/>
  <path d="M73 79c4 0 8-3 8-8a55 55 0 01110 0 8 8 0 0016 0 71 71 0 00-142 0c0 5 3 8 8 8zm0 0"/>
</svg>